# AST/ASF file generated using VICON BodyLanguage
# -----------------------------------------------
:version 1.10
:name VICON
:units
  mass 1.0
  length 0.45
  angle deg
:documentation
   .ast/.asf automatically generated from VICON data using
   VICON BodyBuilder and BodyLanguage model FoxedUp or BRILLIANT.MOD
:root
   order TX TY TZ RX RY RZ
   axis XYZ
   position 0 0 0  
   orientation 0 0 0 
:bonedata
  begin
     id 1 
     name lhipjoint
     direction 0.677091 -0.635792 0.370561 
     length 2.74323 
     axis 0 0 0  XYZ
  end
  begin
     id 2 
     name lfemur
     direction 0.34202 -0.939693 0  
     length 7.44995  
     axis 0 0 20  XYZ
    dof rx ry rz
    limits (-160.0 20.0)
           (-70.0 70.0)
           (-60.0 70.0)
  end
  begin
     id 3 
     name ltibia
     direction 0.34202 -0.939693 0   
     length 7.34467   
     axis 0 0 20   XYZ
    dof rx
    limits (-10.0 170.0)
  end
  begin
     id 4 
     name lfoot
     direction 0.101953 -0.280114 0.954537   
     length 1.72105   
     axis -90 7.62852e-016 20   XYZ
    dof rx rz
    limits (-45.0 90.0)
           (-70.0 20.0)
  end
  begin
     id 5 
     name ltoes
     direction 1.53537e-011 -4.21915e-011 1   
     length 0.865872   
     axis -90 7.62852e-016 20   XYZ
    dof rx
    limits (-90.0 20.0)
  end
  begin
     id 6 
     name rhipjoint
     direction -0.695735 -0.620586 0.361699   
     length 2.81045  
     axis 0 0 0  XYZ 
  end
  begin
     id 7 
     name rfemur
     direction -0.34202 -0.939693 0   
     length 7.29387   
     axis 0 0 -20   XYZ
    dof rx ry rz
    limits (-160.0 20.0)
           (-70.0 70.0)
           (-70.0 60.0)
  end
  begin
     id 8 
     name rtibia
     direction -0.34202 -0.939693 0   
     length 7.44935   
     axis 0 0 -20   XYZ
    dof rx
    limits (-10.0 170.0)
 end
 begin
     id 9 
     name rfoot
     direction -0.104163 -0.286184 0.952496   
     length 1.77731  
     axis -90 -7.62852e-016 -20   XYZ
    dof rx rz
    limits (-45.0 90.0)
           (-20.0 70.0)
  end
  begin
     id 10 
     name rtoes
     direction -1.5355e-011 -4.21888e-011 1   
     length 0.892424   
     axis -90 -7.62852e-016 -20   XYZ
    dof rx
    limits (-90.0 20.0)
  end
  begin
     id 11 
     name lowerback
     direction 0.0100202 0.997226 -0.0737589   
     length 2.16892   
     axis 0 0 0   XYZ
    dof rx ry rz
    limits (-20.0 45.0)
           (-30.0 30.0)
           (-30.0 30.0)
  end
  begin
     id 12 
     name upperback
     direction 0.00432398 0.999988 -0.00215019   
     length 2.17326   
     axis 0 0 0   XYZ
    dof rx ry rz
    limits (-20.0 45.0)
           (-30.0 30.0)
           (-30.0 30.0)
  end
  begin
     id 13 
     name thorax
     direction -0.00195047 0.999485 0.0320434   
     length 2.18139   
     axis 0 0 0   XYZ
    dof rx ry rz
    limits (-20.0 45.0)
           (-30.0 30.0)
           (-30.0 30.0)
  end
  begin
     id 14 
     name lowerneck
     direction 0.00782762 0.986241 0.165128   
     length 1.88415   
     axis 0 0 0   XYZ
    dof rx ry rz
    limits (-20.0 45.0)
           (-30.0 30.0)
           (-30.0 30.0)
  end
  begin
     id 15 
     name upperneck
     direction 0.00988667 0.981098 -0.193258   
     length 1.9242   
     axis 0 0 0   XYZ
    dof rx ry rz
    limits (-20.0 45.0)
           (-30.0 30.0)
           (-30.0 30.0)
  end
  begin
     id 16
     name head
     direction 0.00252199 0.996513 -0.0833958  
     length 1.93887  
     axis 0 0 0   XYZ
    dof rx ry rz
    limits (-20.0 45.0)
           (-30.0 30.0)
           (-30.0 30.0)
  end
  begin
     id 17 
     name lclavicle
     direction 0.929492 0.368193 -0.0218667  
     length 3.5955  
     axis 0 0 0   XYZ
    dof ry rz
    limits (-20.0 10.0)
           (0.0 20.0)
  end
  begin
     id 18 
     name lhumerus
     direction 1 -4.48972e-011 1.41911e-027   
     length 5.2795   
     axis 180 -30 -90   XYZ
    dof rx ry rz
    limits (-60.0 90.0)
           (-90.0 90.0)
           (-90.0 90.0)
  end
  begin
     id 19
     name lradius
     direction 1 -4.48963e-011 7.05772e-027   
     length 3.53504   
     axis 180 -30 -90   XYZ
    dof rx
    limits (-10.0 170.0)
  end
  begin
     id 20
     name lwrist
     direction 1 -4.48957e-011 9.54866e-027   
     length 1.76752   
     axis -7.69462e-015 90 90   XYZ
    dof ry
    limits (-180.0 0.0)
 end
  begin
     id 21 
     name lhand
     direction 1 -4.48979e-011 1.90973e-026   
     length 0.667948   
     axis -1.21857e-014 90 90   XYZ
    dof rx rz
    limits (-90.0 90.0)
           (-45.0 45.0)
  end
  begin
     id 22 
     name lfingers
     direction 1 -4.48987e-011 3.81946e-026   
     length 0.538517   
     axis -2.43714e-014 90 90   XYZ
    dof rx
    limits (0.0 90.0)
  end
  begin
     id 23
     name lthumb
     direction 0.707107 -6.34962e-011 0.707107   
     length 0.773206   
     axis -90 45 2.85299e-015   XYZ
    dof rx rz
    limits (-45.0 45.0)
           (-45.0 45.0)
  end
  begin
     id 24 
     name rclavicle
     direction -0.898763 0.414256 -0.143584   
     length 3.5176  
     axis 0 0 0   XYZ 
    dof ry rz
    limits (-10.0 20.0)
           (-20.0 0.0)
  end
  begin
     id 25 
     name rhumerus
     direction -1 -4.48971e-011 1.129e-027  
     length 5.25035   
     axis 180 30 90   XYZ
    dof rx ry rz
    limits (-90.0 60.0)
           (-90.0 90.0)
           (-90.0 90.0)
  end
  begin
     id 26 
     name rradius
     direction -1 -4.48955e-011 6.34664e-027   
     length 3.58884   
     axis 180 30 90   XYZ
    dof rx
    limits (-10.0 170.0)
  end
  begin
     id 27 
     name rwrist
     direction -1 -4.48966e-011 9.54866e-027   
     length 1.79442   
     axis -7.69462e-015 -90 -90   XYZ
    dof ry
    limits (-180.0 0.0)
  end
  begin
     id 28
     name rhand
     direction -1 -4.48973e-011 1.90973e-026   
     length 0.779235   
     axis -1.21857e-014 -90 -90   XYZ
    dof rx rz
    limits (-90.0 90.0)
           (-45.0 45.0)
  end
  begin
     id 29
     name rfingers
     direction -1 -4.48984e-011 3.81946e-026   
     length 0.62824   
     axis -2.43714e-014 -90 -90   XYZ
    dof rx
    limits (0.0 90.0)
  end
  begin
     id 30
     name rthumb
     direction -0.707107 -6.34968e-011 0.707107   
     length 0.90203   
     axis -90 -45 -2.85299e-015   XYZ
    dof rx rz
    limits (-45.0 45.0)
           (-45.0 45.0)
  end
:hierarchy
  begin
    root lhipjoint rhipjoint lowerback
    lhipjoint lfemur
    lfemur ltibia
    ltibia lfoot
    lfoot ltoes
    rhipjoint rfemur
    rfemur rtibia
    rtibia rfoot
    rfoot rtoes
    lowerback upperback
    upperback thorax
    thorax lowerneck lclavicle rclavicle
    lowerneck upperneck
    upperneck head
    lclavicle lhumerus
    lhumerus lradius
    lradius lwrist
    lwrist lhand lthumb
    lhand lfingers
    rclavicle rhumerus
    rhumerus rradius
    rradius rwrist
    rwrist rhand rthumb
    rhand rfingers
  end

#!OML:ASF I:\Random Stuff\random\construction\7_22_03\Session 2\subj1.ASF
:FULLY-SPECIFIED
:DEGREES
632
root -11.3124 17.7237 -6.37809 -431.381 84.5141 -456.349
lowerback 21.6118 2.32502 -7.25113
upperback 7.86798 1.98715 -3.28548
thorax -3.53788 1.17872 0.0928164
lowerneck -14.2977 0.319926 -5.51652
upperneck 33.7763 7.56788 -10.0331
head 14.3981 1.65219 -1.7784
rclavicle 1.59028e-015 -3.26007e-014
rhumerus -19.7289 15.0222 -85.6726
rradius 79.5652
rwrist -12.6359
rhand -43.9081 26.7347
rfingers 7.12502
rthumb -16.7327 -2.56418
lclavicle 1.59028e-015 -3.26007e-014
lhumerus 21.494 -23.7618 60.5613
lradius 58.0059
lwrist -8.2175
lhand -40.2888 73.7401
lfingers 7.12502
lthumb -13.2461 256.701
rfemur -27.8272 2.81542 18.4801
rtibia 12.2589
rfoot -4.70745 -15.9572
rtoes -21.939
lfemur -45.793 -9.50879 -4.78804
ltibia 28.1286
lfoot -14.9959 5.96498
ltoes -5.73632
633
root -11.3294 17.7269 -6.36676 -432.585 84.5944 -457.58
lowerback 21.5844 2.32608 -7.23499
upperback 7.85158 1.9934 -3.23463
thorax -3.54406 1.18069 0.137557
lowerneck -14.4445 0.257093 -5.47828
upperneck 33.8697 7.41436 -9.84527
head 14.454 1.60367 -1.73508
rclavicle -4.77083e-015 -1.51076e-014
rhumerus -19.709 14.7491 -85.6783
rradius 79.4854
rwrist -12.5889
rhand -43.8913 26.8089
rfingers 7.12502
rthumb -16.7166 -2.49136
lclavicle -4.77083e-015 -1.51076e-014
lhumerus 21.7635 -23.8868 60.5147
lradius 57.6268
lwrist -8.11656
lhand -40.1874 73.7828
lfingers 7.12502
lthumb -13.1484 256.652
rfemur -27.8504 2.91433 18.3803
rtibia 12.1951
rfoot -4.6772 -16.2034
rtoes -21.6456
lfemur -45.8124 -10.0489 -4.49767
ltibia 27.863
lfoot -14.851 6.44752
ltoes -6.12871
634
root -11.3437 17.729 -6.35785 -433.446 84.6471 -458.51
lowerback 21.504 2.31811 -7.21443
upperback 7.82103 1.99101 -3.17211
thorax -3.53889 1.17714 0.196195
lowerneck -14.6244 0.232209 -5.40808
upperneck 33.957 7.32942 -9.71264
head 14.5229 1.58052 -1.70852
rclavicle 4.77083e-015 8.0309e-014
rhumerus -19.6979 14.421 -85.7361
rradius 79.4074
rwrist -12.2607
rhand -43.7308 27.1368
rfingers 7.12502
rthumb -16.562 -2.17639
lclavicle 4.77083e-015 8.0309e-014
lhumerus 21.9329 -23.9032 60.5743
lradius 57.2603
lwrist -8.04759
lhand -40.2986 73.7618
lfingers 7.12502
lthumb -13.2556 256.68
rfemur -27.925 3.02387 18.2972
rtibia 12.1304
rfoot -4.61522 -16.4111
rtoes -21.3213
lfemur -45.892 -10.4362 -4.25394
ltibia 27.6483
lfoot -14.7137 6.78981
ltoes -6.92766
635
root -11.3554 17.7308 -6.35385 -434.209 84.6547 -459.367
lowerback 21.3814 2.27326 -7.11697
upperback 7.77364 1.95667 -3.10816
thorax -3.528 1.15788 0.222254
lowerneck -14.8006 0.230897 -5.25218
upperneck 34.0043 7.3029 -9.73043
head 14.5875 1.57657 -1.74814
rclavicle -2.54444e-014 -5.80451e-014
rhumerus -19.722 14.1824 -85.8253
rradius 79.4095
rwrist -12.0137
rhand -43.7255 27.4053
rfingers 7.12502
rthumb -16.557 -1.90835
lclavicle -2.54444e-014 -5.80451e-014
lhumerus 21.9663 -23.8605 60.6393
lradius 56.9464
lwrist -7.89548
lhand -40.4935 73.665
lfingers 7.12502
lthumb -13.4435 256.789
rfemur -28.0542 2.9856 18.3019
rtibia 12.1329
rfoot -4.57648 -16.4393
rtoes -21.1451
lfemur -46.0086 -10.7619 -4.0077
ltibia 27.4963
lfoot -14.7353 7.12553
ltoes -5.84912
636
root -11.3676 17.7311 -6.35314 -435.616 84.6579 -460.791
lowerback 21.367 2.18623 -6.94435
upperback 7.74575 1.8769 -3.04623
thorax -3.54685 1.11916 0.211348
lowerneck -15.0039 0.212252 -5.13092
upperneck 34.059 7.25185 -9.71973
head 14.6583 1.55966 -1.77444
rclavicle -6.36111e-015 -1.82882e-014
rhumerus -19.6674 14.0452 -85.8619
rradius 79.3856
rwrist -11.9625
rhand -43.9239 27.6786
rfingers 7.12502
rthumb -16.7479 -1.619
lclavicle -6.36111e-015 -1.82882e-014
lhumerus 22.0141 -23.8374 60.6049
lradius 56.6322
lwrist -7.72079
lhand -40.5321 73.6264
lfingers 7.12502
lthumb -13.4807 256.83
rfemur -28.0897 2.90615 18.3166
rtibia 12.1419
rfoot -4.54626 -16.4889
rtoes -20.974
lfemur -46.1045 -11.1466 -3.77448
ltibia 27.4291
lfoot -14.7111 7.44172
ltoes -5.58885
637
root -11.3819 17.7298 -6.35149 -436.859 84.6419 -462.016
lowerback 21.3982 2.10397 -6.76123
upperback 7.72056 1.80187 -2.99236
thorax -3.58576 1.08374 0.183064
lowerneck -15.1792 0.185194 -5.1063
upperneck 34.1352 7.15529 -9.5502
head 14.7176 1.5307 -1.72669
rclavicle -1.43125e-014 1.43125e-014
rhumerus -19.5506 13.9161 -85.8366
rradius 79.2983
rwrist -11.8618
rhand -43.8861 27.8612
rfingers 7.12502
rthumb -16.7115 -1.43953
lclavicle -1.43125e-014 1.43125e-014
lhumerus 22.1103 -23.8668 60.5239
lradius 56.3032
lwrist -7.62169
lhand -40.4172 73.681
lfingers 7.12502
lthumb -13.37 256.768
rfemur -28.0456 3.00742 18.2901
rtibia 12.0447
rfoot -4.44477 -16.6794
rtoes -20.8328
lfemur -46.2035 -11.3651 -3.62296
ltibia 27.4432
lfoot -14.6453 7.6008
ltoes -5.55448
638
root -11.3984 17.7243 -6.35034 -436.215 84.5357 -461.413
lowerback 21.3702 2.06897 -6.55374
upperback 7.63729 1.78642 -2.95542
thorax -3.66047 1.07646 0.109015
lowerneck -15.2336 0.193052 -5.07753
upperneck 34.1728 7.07131 -9.33532
head 14.728 1.51949 -1.65806
rclavicle 0 -4.53229e-014
rhumerus -19.4282 13.8278 -85.8315
rradius 79.1768
rwrist -11.7591
rhand -43.6239 27.7902
rfingers 7.12502
rthumb -16.4591 -1.53159
lclavicle 0 -4.53229e-014
lhumerus 22.1238 -23.8597 60.5032
lradius 55.9607
lwrist -7.50651
lhand -40.2792 73.5571
lfingers 7.12502
lthumb -13.2369 256.883
rfemur -28.0714 3.29625 18.3139
rtibia 11.8571
rfoot -4.28151 -16.841
rtoes -20.5272
lfemur -46.3513 -11.3996 -3.39082
ltibia 27.52
lfoot -14.6152 7.77845
ltoes -5.75421
639
root -11.4119 17.721 -6.34965 -434.432 84.3396 -459.635
lowerback 21.3426 2.0564 -6.34266
upperback 7.54589 1.79899 -2.90141
thorax -3.74597 1.08189 0.0441557
lowerneck -15.2631 0.235886 -5.09256
upperneck 34.1517 7.03844 -9.12476
head 14.707 1.52669 -1.57354
rclavicle -1.59028e-015 -2.54444e-014
rhumerus -19.266 13.865 -85.8621
rradius 79.0319
rwrist -11.8255
rhand -43.2546 27.6372
rfingers 7.12502
rthumb -16.1035 -1.71376
lclavicle -1.59028e-015 -2.54444e-014
lhumerus 22.0171 -23.7287 60.5253
lradius 55.5969
lwrist -7.28566
lhand -40.2356 73.2701
lfingers 7.12502
lthumb -13.1948 257.167
rfemur -28.0669 3.69235 18.4206
rtibia 11.6661
rfoot -4.16112 -16.9864
rtoes -20.0659
lfemur -46.3983 -11.3989 -3.05453
ltibia 27.6047
lfoot -14.6743 8.02719
ltoes -6.024
640
root -11.4191 17.7184 -6.34448 -432.946 84.211 -458.028
lowerback 21.3207 2.05743 -6.26205
upperback 7.52289 1.81438 -2.84027
thorax -3.76169 1.08773 0.0609948
lowerneck -15.3586 0.277418 -5.16332
upperneck 34.1279 7.01263 -8.88272
head 14.6974 1.53107 -1.46496
rclavicle -1.90833e-014 3.73715e-014
rhumerus -19.062 13.9766 -85.8522
rradius 78.9091
rwrist -12.0742
rhand -42.7691 27.5844
rfingers 7.12502
rthumb -15.636 -1.80372
lclavicle -1.90833e-014 3.73715e-014
lhumerus 21.9589 -23.5828 60.52
lradius 55.1995
lwrist -7.07703
lhand -40.1744 73.0273
lfingers 7.12502
lthumb -13.1359 257.406
rfemur -27.9408 4.04652 18.4887
rtibia 11.5592
rfoot -4.1004 -17.1356
rtoes -19.8216
lfemur -46.275 -11.3948 -2.85644
ltibia 27.6694
lfoot -14.7272 8.16349
ltoes -6.18606
